<svg width="1510" height="1696" viewBox="0 0 1510 1696" fill="none" xmlns="http://www.w3.org/2000/svg">
<g clip-path="url(#clip0_3007_31)">
<path d="M754.352 25C1054.16 25 1323.63 154.926 1509.52 361.544L755.019 1668.37L0 360.64C185.86 154.547 454.977 25 754.352 25Z" fill="#50782B"/>
<path d="M754.352 523C945.858 523 1117.79 606.787 1235.5 739.701L868.803 1374.85C903.222 1405.96 924.852 1450.95 924.852 1501C924.852 1594.89 848.74 1671 754.852 1671C660.963 1671 584.852 1594.89 584.852 1501C584.852 1451.53 605.983 1407 639.709 1375.93L272.703 740.261C390.427 607.022 562.576 523 754.352 523ZM544.057 1004.82C552.64 1013.78 559.487 1024.26 564.239 1035.73C569.265 1047.86 571.852 1060.87 571.852 1074C571.852 1087.13 569.265 1100.14 564.239 1112.27C559.217 1124.39 551.858 1135.41 542.581 1144.69L667.396 1355.19C692.948 1339.83 722.868 1331 754.852 1331C786.537 1331 816.198 1339.67 841.592 1354.77L966.695 1146.26C957.62 1137.07 950.408 1126.21 945.464 1114.27C940.438 1102.14 937.852 1089.13 937.852 1076C937.852 1062.87 940.438 1049.86 945.464 1037.73C950.409 1025.79 957.62 1014.93 966.695 1005.74L805.571 737.199C790.701 745.968 773.364 751 754.852 751C735.911 751 718.2 745.733 703.104 736.585L544.057 1004.82Z" fill="#CE8C51"/>
<path d="M755.05 1227C835.727 1227 907.441 1265.38 952.931 1324.87L946.401 1336.18C903.297 1277.27 833.643 1239 755.05 1239C676.267 1239 606.465 1277.45 563.385 1336.61L556.852 1325.29C602.325 1265.56 674.184 1227 755.05 1227Z" fill="white"/>
<path d="M755.352 515C966.167 515 1153.56 615.286 1272.43 770.752L1265.92 782.029C1149.41 627.157 964.078 527 755.352 527C546.132 527 360.416 627.629 243.961 783.126L237.447 771.842C356.271 615.755 544.044 515 755.352 515Z" fill="white"/>
<path d="M542.685 1076L522.852 1109.06L503.018 1076L522.852 1042.94L542.685 1076Z" fill="#D9D9D9" stroke="#0D0D0D" stroke-width="2"/>
<path d="M1007.68 1076L987.852 1109.06L968.018 1076L987.852 1042.94L1007.68 1076Z" fill="#D9D9D9" stroke="#0D0D0D" stroke-width="2"/>
<path d="M773.685 686L753.852 719.056L734.018 686L753.852 652.943L773.685 686Z" fill="#D9D9D9" stroke="#0D0D0D" stroke-width="2"/>
<path d="M837.852 1403L1463.35 313.5" stroke="white" stroke-width="3"/>
<path d="M669.852 1403.5L40.8516 318" stroke="white" stroke-width="3"/>
<path d="M730.539 1459.73L730.539 1436.5L777.449 1436.5L777.449 1459.72L753.857 1499.05L730.539 1459.73Z" fill="#D9D9D9" stroke="black" stroke-width="2"/>
<rect x="669.352" y="1402.5" width="37" height="162" stroke="white" stroke-width="3"/>
<rect x="801.352" y="1402.5" width="37" height="162" stroke="white" stroke-width="3"/>
<rect x="729.852" y="1059" width="49" height="16" fill="#D9D9D9" stroke="black" stroke-width="2"/>
</g>
<defs>
<clipPath id="clip0_3007_31">
<rect width="1510" height="1696" fill="white"/>
</clipPath>
</defs>
</svg>
