<svg width="1733" height="1911" viewBox="0 0 1733 1911" fill="none" xmlns="http://www.w3.org/2000/svg">
<g clip-path="url(#clip0_3007_31)">
<path d="M109.5 404.971C339.809 272.002 601.062 202 867 202C1132.94 202 1394.19 272.002 1624.5 404.971L867 1717L109.5 404.971Z" fill="#50782B"/>
<path d="M866.5 572C1058.01 572 1229.94 655.787 1347.65 788.701L980.951 1423.85C1015.37 1454.96 1037 1499.95 1037 1550C1037 1643.89 960.888 1720 867 1720C773.112 1720 697 1643.89 697 1550C697 1500.53 718.131 1456 751.857 1424.93L384.852 789.261C502.575 656.022 674.725 572 866.5 572ZM656.205 1053.82C664.788 1062.78 671.635 1073.26 676.388 1084.73C681.413 1096.86 684 1109.87 684 1123C684 1136.13 681.413 1149.14 676.388 1161.27C671.366 1173.39 664.006 1184.41 654.729 1193.69L779.545 1404.19C805.097 1388.83 835.016 1380 867 1380C898.686 1380 928.346 1388.67 953.74 1403.77L1078.84 1195.26C1069.77 1186.07 1062.56 1175.21 1057.61 1163.27C1052.59 1151.14 1050 1138.13 1050 1125C1050 1111.87 1052.59 1098.86 1057.61 1086.73C1062.56 1074.79 1069.77 1063.93 1078.84 1054.74L917.72 786.199C902.849 794.968 885.513 800 867 800C848.059 800 830.349 794.733 815.252 785.585L656.205 1053.82Z" fill="#CE8C51"/>
<path d="M867.198 1276C947.876 1276 1019.59 1314.38 1065.08 1373.87L1058.55 1385.18C1015.45 1326.27 945.791 1288 867.198 1288C788.415 1288 718.613 1326.45 675.533 1385.61L669 1374.29C714.473 1314.56 786.333 1276 867.198 1276Z" fill="white"/>
<path d="M867.5 564C1078.32 564 1265.71 664.286 1384.57 819.752L1378.06 831.029C1261.56 676.157 1076.23 576 867.5 576C658.28 576 472.564 676.629 356.109 832.126L349.596 820.842C468.42 664.755 656.193 564 867.5 564Z" fill="white"/>
<path d="M654.833 1125L635 1158.06L615.166 1125L635 1091.94L654.833 1125Z" fill="#D9D9D9" stroke="#0D0D0D" stroke-width="2"/>
<path d="M1119.83 1125L1100 1158.06L1080.17 1125L1100 1091.94L1119.83 1125Z" fill="#D9D9D9" stroke="#0D0D0D" stroke-width="2"/>
<path d="M885.833 735L866 768.056L846.166 735L866 701.943L885.833 735Z" fill="#D9D9D9" stroke="#0D0D0D" stroke-width="2"/>
<path d="M950 1452L1569 374.5" stroke="white" stroke-width="3"/>
<path d="M782 1452.5L159.5 377" stroke="white" stroke-width="3"/>
<path d="M842.688 1508.73L842.688 1485.5L889.598 1485.5L889.598 1508.72L866.006 1548.05L842.688 1508.73Z" fill="#D9D9D9" stroke="black" stroke-width="2"/>
<rect x="781.5" y="1451.5" width="37" height="162" stroke="white" stroke-width="3"/>
<rect x="913.5" y="1451.5" width="37" height="162" stroke="white" stroke-width="3"/>
<rect x="842" y="1108" width="49" height="16" fill="#D9D9D9" stroke="black" stroke-width="2"/>
</g>
<defs>
<clipPath id="clip0_3007_31">
<rect width="1733" height="1911" fill="white"/>
</clipPath>
</defs>
</svg>
